<?xml version="1.0" encoding="UTF-8" standalone="no"?>
<!DOCTYPE svg PUBLIC "-//W3C//DTD SVG 1.1//EN" "http://www.w3.org/Graphics/SVG/1.1/DTD/svg11.dtd">
<svg width="100%" height="100%" viewBox="0 0 1024 768" version="1.1" xmlns="http://www.w3.org/2000/svg" xmlns:xlink="http://www.w3.org/1999/xlink" xml:space="preserve" xmlns:serif="http://www.serif.com/" style="fill-rule:evenodd;clip-rule:evenodd;">
    <rect id="Artboard1" x="0" y="0" width="1024" height="768" style="fill:none;"/>
    <g id="Artboard11" serif:id="Artboard1">
        <g id="Ultralight-S" transform="matrix(1,0,0,1,479.344,413.032)">
            <path d="M70.918,-59.511C66.368,-59.511 62.512,-57.815 57.863,-48.705C49.106,-58.811 30.997,-69.886 12.531,-71.25C10.774,-71.361 9.958,-70.438 9.86,-68.859C8.419,-49.718 23.713,-34.986 44.461,-33.327C39.562,-21.828 30.762,-8.762 20.845,0.621C19.954,1.412 19.904,2.428 20.65,3.624C24.744,9.978 37.604,13.677 46.455,10.626C47.499,10.247 48.067,9.826 48.067,8.341L48.067,-7.032C59.677,-7.034 76.006,-13.07 72.199,-33.147L71.319,-37.534C79.355,-39.172 84.317,-43.625 84.317,-47.55C84.317,-53.038 78.505,-59.511 70.918,-59.511ZM70.948,-57.348C77.619,-57.348 82.154,-52.096 82.154,-47.55C82.154,-44.439 78.031,-40.849 70.029,-39.464C69.441,-39.366 69.009,-38.893 69.107,-38.356L70.133,-32.465C73.268,-13.682 58.125,-8.799 47.002,-9.209C46.329,-9.247 45.901,-8.784 45.901,-8.192L45.901,8.151C45.901,8.409 45.845,8.569 45.539,8.663C37.446,11.414 26.213,8.1 22.492,2.446C22.335,2.199 22.328,2.123 22.53,1.92C32.879,-7.813 42.149,-21.793 46.93,-33.541C47.352,-34.583 46.979,-35.286 45.843,-35.335C25.352,-36.627 10.922,-50.051 12.023,-68.613C12.068,-68.976 12.124,-69.077 12.532,-69.024C30.707,-67.519 47.866,-56.952 56.25,-47.248C56.785,-46.576 57.416,-46.333 58.038,-46.333C58.736,-46.333 59.328,-46.701 59.748,-47.5C64.049,-56.07 66.806,-57.348 70.948,-57.348ZM65.556,-57.789L67.605,-58.433C62.506,-69.934 55.765,-77.846 45.895,-83.336C44.304,-84.195 42.891,-83.688 42.375,-82.121C40.289,-76.124 39.553,-68.54 40.348,-61.425L42.556,-60.606C41.765,-68.388 42.373,-75.522 44.34,-81.122C44.438,-81.491 44.632,-81.557 44.991,-81.348C51.153,-77.878 56.012,-73.537 60.011,-67.803C62.066,-64.857 63.895,-61.542 65.556,-57.789ZM74.466,-47.912C75.557,-47.912 76.453,-48.801 76.453,-49.896C76.453,-50.987 75.557,-51.886 74.466,-51.886C73.371,-51.886 72.479,-50.987 72.479,-49.896C72.479,-48.801 73.371,-47.912 74.466,-47.912ZM82.25,-43.288L91.833,-42.135C93.435,-41.926 93.988,-44.172 92.379,-44.852L83.803,-48.252L82.25,-43.288Z" style="fill:none;fill-rule:nonzero;stroke:black;stroke-width:0.5px;"/>
        </g>
        <path d="M564.107,379.034C564.107,378.065 563.848,369.357 570.108,369.04C576.053,368.738 572.645,379.787 574.252,379.518" style="fill:none;stroke:black;stroke-width:1px;stroke-linecap:round;stroke-linejoin:round;stroke-miterlimit:1.5;"/>
    </g>
</svg>
